<?xml version="1.0" encoding="UTF-8" standalone="no"?>
<!DOCTYPE svg PUBLIC "-//W3C//DTD SVG 1.1//EN"
 "http://www.w3.org/Graphics/SVG/1.1/DTD/svg11.dtd">
<!-- Generated by graphviz version 2.38.0 (20140413.2041)
 -->
<!-- Title: G Pages: 1 -->
<svg width="634pt" height="287pt"
 viewBox="0.00 0.00 634.00 287.00" xmlns="http://www.w3.org/2000/svg" xmlns:xlink="http://www.w3.org/1999/xlink">
<g id="graph0" class="graph" transform="scale(1 1) rotate(0) translate(4 283)">
<title>G</title>
<polygon fill="white" stroke="none" points="-4,4 -4,-283 630,-283 630,4 -4,4"/>
<!-- PiEncoder -->
<g id="node1" class="node"><title>PiEncoder</title>
<g id="a_node1"><a xlink:href="../api.html#picamera.PiEncoder" xlink:title="PiEncoder" target="_top">
<polygon fill="#9ec6e0" stroke="#9ec6e0" points="75,-144 0,-144 0,-108 75,-108 75,-144"/>
<text text-anchor="middle" x="37.5" y="-122.9" font-family="Sans" font-size="12.00" fill="#000000">PiEncoder</text>
</a>
</g>
</g>
<!-- PiImageEncoder -->
<g id="node2" class="node"><title>PiImageEncoder</title>
<g id="a_node2"><a xlink:href="../api.html#picamera.PiImageEncoder" xlink:title="PiImageEncoder" target="_top">
<polygon fill="#9ec6e0" stroke="#9ec6e0" points="222,-198 111,-198 111,-162 222,-162 222,-198"/>
<text text-anchor="middle" x="166.5" y="-176.9" font-family="Sans" font-size="12.00" fill="#000000">PiImageEncoder</text>
</a>
</g>
</g>
<!-- PiImageEncoder&#45;&gt;PiEncoder -->
<g id="edge1" class="edge"><title>PiImageEncoder&#45;&gt;PiEncoder</title>
<path fill="none" stroke="black" d="M122.858,-161.869C110.569,-156.644 97.1082,-150.92 84.6191,-145.61"/>
<polygon fill="black" stroke="black" points="85.8658,-142.337 75.2936,-141.645 83.1267,-148.778 85.8658,-142.337"/>
</g>
<!-- PiVideoEncoder -->
<g id="node3" class="node"><title>PiVideoEncoder</title>
<g id="a_node3"><a xlink:href="../api.html#picamera.PiVideoEncoder" xlink:title="PiVideoEncoder" target="_top">
<polygon fill="#9ec6e0" stroke="#9ec6e0" points="220,-90 113,-90 113,-54 220,-54 220,-90"/>
<text text-anchor="middle" x="166.5" y="-68.9" font-family="Sans" font-size="12.00" fill="#000000">PiVideoEncoder</text>
</a>
</g>
</g>
<!-- PiVideoEncoder&#45;&gt;PiEncoder -->
<g id="edge2" class="edge"><title>PiVideoEncoder&#45;&gt;PiEncoder</title>
<path fill="none" stroke="black" d="M122.858,-90.1314C110.569,-95.3565 97.1082,-101.08 84.6191,-106.39"/>
<polygon fill="black" stroke="black" points="83.1267,-103.222 75.2936,-110.355 85.8658,-109.663 83.1267,-103.222"/>
</g>
<!-- PiOneImageEncoder -->
<g id="node4" class="node"><title>PiOneImageEncoder</title>
<g id="a_node4"><a xlink:href="../api.html#picamera.PiOneImageEncoder" xlink:title="PiOneImageEncoder" target="_top">
<polygon fill="#9ec6e0" stroke="#9ec6e0" points="401,-144 266,-144 266,-108 401,-108 401,-144"/>
<text text-anchor="middle" x="333.5" y="-122.9" font-family="Sans" font-size="12.00" fill="#000000">PiOneImageEncoder</text>
</a>
</g>
</g>
<!-- PiOneImageEncoder&#45;&gt;PiImageEncoder -->
<g id="edge4" class="edge"><title>PiOneImageEncoder&#45;&gt;PiImageEncoder</title>
<path fill="none" stroke="black" d="M277.098,-144.131C262.583,-148.882 246.809,-154.044 231.87,-158.933"/>
<polygon fill="black" stroke="black" points="230.61,-155.663 222.195,-162.1 232.787,-162.316 230.61,-155.663"/>
</g>
<!-- PiMultiImageEncoder -->
<g id="node5" class="node"><title>PiMultiImageEncoder</title>
<g id="a_node5"><a xlink:href="../api.html#picamera.PiMultiImageEncoder" xlink:title="PiMultiImageEncoder" target="_top">
<polygon fill="#9ec6e0" stroke="#9ec6e0" points="402,-252 265,-252 265,-216 402,-216 402,-252"/>
<text text-anchor="middle" x="333.5" y="-230.9" font-family="Sans" font-size="12.00" fill="#000000">PiMultiImageEncoder</text>
</a>
</g>
</g>
<!-- PiMultiImageEncoder&#45;&gt;PiImageEncoder -->
<g id="edge5" class="edge"><title>PiMultiImageEncoder&#45;&gt;PiImageEncoder</title>
<path fill="none" stroke="black" d="M277.098,-215.869C262.583,-211.118 246.809,-205.956 231.87,-201.067"/>
<polygon fill="black" stroke="black" points="232.787,-197.684 222.195,-197.9 230.61,-204.337 232.787,-197.684"/>
</g>
<!-- PiRawMixin -->
<g id="node6" class="node"><title>PiRawMixin</title>
<g id="a_node6"><a xlink:href="../api.html#picamera.PiRawMixin" xlink:title="PiRawMixin" target="_top">
<polygon fill="#9ec6e0" stroke="#9ec6e0" points="206.5,-144 126.5,-144 126.5,-108 206.5,-108 206.5,-144"/>
<text text-anchor="middle" x="166.5" y="-122.9" font-family="Sans" font-size="12.00" fill="#000000">PiRawMixin</text>
</a>
</g>
</g>
<!-- PiRawMixin&#45;&gt;PiEncoder -->
<g id="edge3" class="edge"><title>PiRawMixin&#45;&gt;PiEncoder</title>
<path fill="none" stroke="black" d="M126.36,-126C113.35,-126 98.7328,-126 85.21,-126"/>
<polygon fill="black" stroke="black" points="85.1272,-122.5 75.1271,-126 85.1271,-129.5 85.1272,-122.5"/>
</g>
<!-- PiRawImageMixin -->
<g id="node7" class="node"><title>PiRawImageMixin</title>
<g id="a_node7"><a xlink:href="../api.html#picamera.PiRawImageMixin" xlink:title="PiRawImageMixin" target="_top">
<polygon fill="#9ec6e0" stroke="#9ec6e0" points="391.5,-198 275.5,-198 275.5,-162 391.5,-162 391.5,-198"/>
<text text-anchor="middle" x="333.5" y="-176.9" font-family="Sans" font-size="12.00" fill="#000000">PiRawImageMixin</text>
</a>
</g>
</g>
<!-- PiRawImageMixin&#45;&gt;PiImageEncoder -->
<g id="edge10" class="edge"><title>PiRawImageMixin&#45;&gt;PiImageEncoder</title>
<path fill="none" stroke="black" d="M275.254,-180C261.398,-180 246.49,-180 232.313,-180"/>
<polygon fill="black" stroke="black" points="232.145,-176.5 222.145,-180 232.144,-183.5 232.145,-176.5"/>
</g>
<!-- PiRawImageMixin&#45;&gt;PiRawMixin -->
<g id="edge9" class="edge"><title>PiRawImageMixin&#45;&gt;PiRawMixin</title>
<path fill="none" stroke="black" d="M277.098,-161.869C257.406,-155.424 235.397,-148.221 216.298,-141.97"/>
<polygon fill="black" stroke="black" points="217.196,-138.582 206.604,-138.798 215.019,-145.234 217.196,-138.582"/>
</g>
<!-- PiRawOneImageEncoder -->
<g id="node8" class="node"><title>PiRawOneImageEncoder</title>
<g id="a_node8"><a xlink:href="../api.html#picamera.PiRawOneImageEncoder" xlink:title="PiRawOneImageEncoder" target="_top">
<polygon fill="#2980b9" stroke="#2980b9" points="615.5,-171 455.5,-171 455.5,-135 615.5,-135 615.5,-171"/>
<text text-anchor="middle" x="535.5" y="-149.9" font-family="Sans" font-size="12.00" fill="#ffffff">PiRawOneImageEncoder</text>
</a>
</g>
</g>
<!-- PiRawOneImageEncoder&#45;&gt;PiOneImageEncoder -->
<g id="edge11" class="edge"><title>PiRawOneImageEncoder&#45;&gt;PiOneImageEncoder</title>
<path fill="none" stroke="black" d="M455.455,-142.329C440.817,-140.353 425.552,-138.292 410.992,-136.326"/>
<polygon fill="black" stroke="black" points="411.419,-132.852 401.041,-134.983 410.482,-139.789 411.419,-132.852"/>
</g>
<!-- PiRawOneImageEncoder&#45;&gt;PiRawImageMixin -->
<g id="edge12" class="edge"><title>PiRawOneImageEncoder&#45;&gt;PiRawImageMixin</title>
<path fill="none" stroke="black" d="M455.455,-163.671C437.656,-166.074 418.931,-168.602 401.673,-170.932"/>
<polygon fill="black" stroke="black" points="401.141,-167.472 391.699,-172.278 402.077,-174.409 401.141,-167.472"/>
</g>
<!-- PiRawMultiImageEncoder -->
<g id="node9" class="node"><title>PiRawMultiImageEncoder</title>
<g id="a_node9"><a xlink:href="../api.html#picamera.PiRawMultiImageEncoder" xlink:title="PiRawMultiImageEncoder" target="_top">
<polygon fill="#2980b9" stroke="#2980b9" points="616.5,-225 454.5,-225 454.5,-189 616.5,-189 616.5,-225"/>
<text text-anchor="middle" x="535.5" y="-203.9" font-family="Sans" font-size="12.00" fill="#ffffff">PiRawMultiImageEncoder</text>
</a>
</g>
</g>
<!-- PiRawMultiImageEncoder&#45;&gt;PiMultiImageEncoder -->
<g id="edge13" class="edge"><title>PiRawMultiImageEncoder&#45;&gt;PiMultiImageEncoder</title>
<path fill="none" stroke="black" d="M454.305,-217.826C440.4,-219.703 425.964,-221.652 412.129,-223.52"/>
<polygon fill="black" stroke="black" points="411.62,-220.057 402.178,-224.863 412.557,-226.994 411.62,-220.057"/>
</g>
<!-- PiRawMultiImageEncoder&#45;&gt;PiRawImageMixin -->
<g id="edge14" class="edge"><title>PiRawMultiImageEncoder&#45;&gt;PiRawImageMixin</title>
<path fill="none" stroke="black" d="M454.305,-196.174C436.935,-193.829 418.736,-191.372 401.917,-189.101"/>
<polygon fill="black" stroke="black" points="402.021,-185.584 391.643,-187.714 401.084,-192.521 402.021,-185.584"/>
</g>
<!-- PiRawVideoEncoder -->
<g id="node10" class="node"><title>PiRawVideoEncoder</title>
<g id="a_node10"><a xlink:href="../api.html#picamera.PiRawVideoEncoder" xlink:title="PiRawVideoEncoder" target="_top">
<polygon fill="#2980b9" stroke="#2980b9" points="399.5,-90 267.5,-90 267.5,-54 399.5,-54 399.5,-90"/>
<text text-anchor="middle" x="333.5" y="-68.9" font-family="Sans" font-size="12.00" fill="#ffffff">PiRawVideoEncoder</text>
</a>
</g>
</g>
<!-- PiRawVideoEncoder&#45;&gt;PiVideoEncoder -->
<g id="edge16" class="edge"><title>PiRawVideoEncoder&#45;&gt;PiVideoEncoder</title>
<path fill="none" stroke="black" d="M267.288,-72C255.043,-72 242.265,-72 230.102,-72"/>
<polygon fill="black" stroke="black" points="230.054,-68.5001 220.054,-72 230.054,-75.5001 230.054,-68.5001"/>
</g>
<!-- PiRawVideoEncoder&#45;&gt;PiRawMixin -->
<g id="edge15" class="edge"><title>PiRawVideoEncoder&#45;&gt;PiRawMixin</title>
<path fill="none" stroke="black" d="M277.098,-90.1314C257.406,-96.5761 235.397,-103.779 216.298,-110.03"/>
<polygon fill="black" stroke="black" points="215.019,-106.766 206.604,-113.202 217.196,-113.418 215.019,-106.766"/>
</g>
<!-- PiCookedOneImageEncoder -->
<g id="node11" class="node"><title>PiCookedOneImageEncoder</title>
<g id="a_node11"><a xlink:href="../api.html#picamera.PiCookedOneImageEncoder" xlink:title="PiCookedOneImageEncoder" target="_top">
<polygon fill="#2980b9" stroke="#2980b9" points="625,-117 446,-117 446,-81 625,-81 625,-117"/>
<text text-anchor="middle" x="535.5" y="-95.9" font-family="Sans" font-size="12.00" fill="#ffffff">PiCookedOneImageEncoder</text>
</a>
</g>
</g>
<!-- PiCookedOneImageEncoder&#45;&gt;PiOneImageEncoder -->
<g id="edge6" class="edge"><title>PiCookedOneImageEncoder&#45;&gt;PiOneImageEncoder</title>
<path fill="none" stroke="black" d="M445.904,-110.961C434.384,-112.516 422.66,-114.098 411.354,-115.625"/>
<polygon fill="black" stroke="black" points="410.548,-112.202 401.106,-117.008 411.484,-119.139 410.548,-112.202"/>
</g>
<!-- PiCookedMultiImageEncoder -->
<g id="node12" class="node"><title>PiCookedMultiImageEncoder</title>
<g id="a_node12"><a xlink:href="../api.html#picamera.PiCookedMultiImageEncoder" xlink:title="PiCookedMultiImageEncoder" target="_top">
<polygon fill="#2980b9" stroke="#2980b9" points="626,-279 445,-279 445,-243 626,-243 626,-279"/>
<text text-anchor="middle" x="535.5" y="-257.9" font-family="Sans" font-size="12.00" fill="#ffffff">PiCookedMultiImageEncoder</text>
</a>
</g>
</g>
<!-- PiCookedMultiImageEncoder&#45;&gt;PiMultiImageEncoder -->
<g id="edge7" class="edge"><title>PiCookedMultiImageEncoder&#45;&gt;PiMultiImageEncoder</title>
<path fill="none" stroke="black" d="M444.738,-248.882C433.878,-247.416 422.855,-245.928 412.19,-244.488"/>
<polygon fill="black" stroke="black" points="412.468,-240.994 402.09,-243.125 411.532,-247.931 412.468,-240.994"/>
</g>
<!-- PiCookedVideoEncoder -->
<g id="node13" class="node"><title>PiCookedVideoEncoder</title>
<g id="a_node13"><a xlink:href="../api.html#picamera.PiCookedVideoEncoder" xlink:title="PiCookedVideoEncoder" target="_top">
<polygon fill="#2980b9" stroke="#2980b9" points="409,-36 258,-36 258,-0 409,-0 409,-36"/>
<text text-anchor="middle" x="333.5" y="-14.9" font-family="Sans" font-size="12.00" fill="#ffffff">PiCookedVideoEncoder</text>
</a>
</g>
</g>
<!-- PiCookedVideoEncoder&#45;&gt;PiVideoEncoder -->
<g id="edge8" class="edge"><title>PiCookedVideoEncoder&#45;&gt;PiVideoEncoder</title>
<path fill="none" stroke="black" d="M277.098,-36.1314C261.902,-41.1047 245.327,-46.5295 229.773,-51.6197"/>
<polygon fill="black" stroke="black" points="228.658,-48.302 220.242,-54.7389 230.835,-54.9548 228.658,-48.302"/>
</g>
</g>
</svg>
