<?xml version="1.0" encoding="UTF-8" standalone="no"?>
<!DOCTYPE svg PUBLIC "-//W3C//DTD SVG 1.1//EN"
 "http://www.w3.org/Graphics/SVG/1.1/DTD/svg11.dtd">
<!-- Generated by graphviz version 2.38.0 (20140413.2041)
 -->
<!-- Title: G Pages: 1 -->
<svg width="549pt" height="134pt"
 viewBox="0.00 0.00 549.00 133.50" xmlns="http://www.w3.org/2000/svg" xmlns:xlink="http://www.w3.org/1999/xlink">
<g id="graph0" class="graph" transform="scale(1 1) rotate(0) translate(4 129.5)">
<title>G</title>
<polygon fill="white" stroke="none" points="-4,4 -4,-129.5 545,-129.5 545,4 -4,4"/>
<!-- MMALCamera -->
<g id="node1" class="node"><title>MMALCamera</title>
<polygon fill="#77bbee" stroke="#447777" points="2.5,-12.5 2.5,-69.5 108.5,-69.5 108.5,-12.5 2.5,-12.5"/>
<text text-anchor="middle" x="44" y="-38.5" font-family="Sans" font-size="10.00">MMALCamera</text>
<polyline fill="none" stroke="#447777" points="85.5,-12.5 85.5,-69.5 "/>
<text text-anchor="middle" x="97" y="-57.5" font-family="Sans" font-size="10.00">0</text>
<polyline fill="none" stroke="#447777" points="85.5,-50.5 108.5,-50.5 "/>
<text text-anchor="middle" x="97" y="-38.5" font-family="Sans" font-size="10.00">1</text>
<polyline fill="none" stroke="#447777" points="85.5,-31.5 108.5,-31.5 "/>
<text text-anchor="middle" x="97" y="-19.5" font-family="Sans" font-size="10.00">2</text>
</g>
<!-- MMALImageEncoder -->
<g id="node2" class="node"><title>MMALImageEncoder</title>
<polygon fill="#77bbee" stroke="#447777" points="230,-4 230,-40 390,-40 390,-4 230,-4"/>
<text text-anchor="middle" x="241.5" y="-19.5" font-family="Sans" font-size="10.00">0</text>
<polyline fill="none" stroke="#447777" points="253,-4 253,-40 "/>
<text text-anchor="middle" x="310" y="-19.5" font-family="Sans" font-size="10.00">MMALImageEncoder</text>
<polyline fill="none" stroke="#447777" points="367,-4 367,-40 "/>
<text text-anchor="middle" x="378.5" y="-19.5" font-family="Sans" font-size="10.00">0</text>
</g>
<!-- MMALCamera&#45;&gt;MMALImageEncoder -->
<g id="edge1" class="edge"><title>MMALCamera:still&#45;&gt;MMALImageEncoder:input</title>
<path fill="none" stroke="#447777" d="M109.5,-22C159.499,-22 174.489,-22 219.839,-22"/>
<polygon fill="#447777" stroke="#447777" points="220,-25.5001 230,-22 220,-18.5001 220,-25.5001"/>
<text text-anchor="middle" x="170.5" y="-25" font-family="Sans" font-size="10.00">MMALConnection</text>
<text text-anchor="middle" x="209" y="-14" font-family="Sans" font-size="10.00">OPQV</text>
<text text-anchor="middle" x="209" y="-3" font-family="Sans" font-size="10.00">640x480</text>
<text text-anchor="middle" x="130.5" y="-14" font-family="Sans" font-size="10.00">OPQV</text>
<text text-anchor="middle" x="130.5" y="-3" font-family="Sans" font-size="10.00">640x480</text>
</g>
<!-- FileOutput -->
<g id="node4" class="node"><title>FileOutput</title>
<polygon fill="#77bbee" stroke="#447777" points="535,-40 477,-40 477,-4 541,-4 541,-34 535,-40"/>
<polyline fill="none" stroke="#447777" points="535,-40 535,-34 "/>
<polyline fill="none" stroke="#447777" points="541,-34 535,-34 "/>
<text text-anchor="middle" x="509" y="-19.5" font-family="Sans" font-size="10.00">image.jpg</text>
</g>
<!-- MMALImageEncoder&#45;&gt;FileOutput -->
<g id="edge2" class="edge"><title>MMALImageEncoder:output&#45;&gt;FileOutput</title>
<path fill="none" stroke="#447777" d="M390,-22C415.467,-22 444.025,-22 466.668,-22"/>
<polygon fill="#447777" stroke="#447777" points="466.944,-25.5001 476.944,-22 466.944,-18.5001 466.944,-25.5001"/>
<text text-anchor="middle" x="433.5" y="-25" font-family="Sans" font-size="10.00">callback fn</text>
<text text-anchor="middle" x="411" y="-14" font-family="Sans" font-size="10.00">JPEG</text>
<text text-anchor="middle" x="411" y="-3" font-family="Sans" font-size="10.00">640x480</text>
</g>
<!-- MMALRenderer -->
<g id="node3" class="node"><title>MMALRenderer</title>
<polygon fill="#77bbee" stroke="#447777" points="0,-89 0,-125 111,-125 111,-89 0,-89"/>
<text text-anchor="middle" x="11.5" y="-104.5" font-family="Sans" font-size="10.00">0</text>
<polyline fill="none" stroke="#447777" points="23,-89 23,-125 "/>
<text text-anchor="middle" x="67" y="-104.5" font-family="Sans" font-size="10.00">MMALRenderer</text>
</g>
</g>
</svg>
