<?xml version="1.0" encoding="UTF-8" standalone="no"?>
<!DOCTYPE svg PUBLIC "-//W3C//DTD SVG 1.1//EN"
 "http://www.w3.org/Graphics/SVG/1.1/DTD/svg11.dtd">
<!-- Generated by graphviz version 2.38.0 (20140413.2041)
 -->
<!-- Title: G Pages: 1 -->
<svg width="523pt" height="176pt"
 viewBox="0.00 0.00 523.00 175.50" xmlns="http://www.w3.org/2000/svg" xmlns:xlink="http://www.w3.org/1999/xlink">
<g id="graph0" class="graph" transform="scale(1 1) rotate(0) translate(4 171.5)">
<title>G</title>
<polygon fill="white" stroke="none" points="-4,4 -4,-171.5 519,-171.5 519,4 -4,4"/>
<!-- MMALCamera -->
<g id="node1" class="node"><title>MMALCamera</title>
<polygon fill="#77bbee" stroke="#447777" points="2.5,-0.5 2.5,-57.5 108.5,-57.5 108.5,-0.5 2.5,-0.5"/>
<text text-anchor="middle" x="44" y="-26.5" font-family="Sans" font-size="10.00">MMALCamera</text>
<polyline fill="none" stroke="#447777" points="85.5,-0.5 85.5,-57.5 "/>
<text text-anchor="middle" x="97" y="-45.5" font-family="Sans" font-size="10.00">0</text>
<polyline fill="none" stroke="#447777" points="85.5,-38.5 108.5,-38.5 "/>
<text text-anchor="middle" x="97" y="-26.5" font-family="Sans" font-size="10.00">1</text>
<polyline fill="none" stroke="#447777" points="85.5,-19.5 108.5,-19.5 "/>
<text text-anchor="middle" x="97" y="-7.5" font-family="Sans" font-size="10.00">2</text>
</g>
<!-- MMALImageEncoder -->
<g id="node2" class="node"><title>MMALImageEncoder</title>
<polygon fill="#77bbee" stroke="#447777" points="204,-76 204,-112 364,-112 364,-76 204,-76"/>
<text text-anchor="middle" x="215.5" y="-91.5" font-family="Sans" font-size="10.00">0</text>
<polyline fill="none" stroke="#447777" points="227,-76 227,-112 "/>
<text text-anchor="middle" x="284" y="-91.5" font-family="Sans" font-size="10.00">MMALImageEncoder</text>
<polyline fill="none" stroke="#447777" points="341,-76 341,-112 "/>
<text text-anchor="middle" x="352.5" y="-91.5" font-family="Sans" font-size="10.00">0</text>
</g>
<!-- FileOutput -->
<g id="node5" class="node"><title>FileOutput</title>
<polygon fill="#77bbee" stroke="#447777" points="509,-112 451,-112 451,-76 515,-76 515,-106 509,-112"/>
<polyline fill="none" stroke="#447777" points="509,-112 509,-106 "/>
<polyline fill="none" stroke="#447777" points="515,-106 509,-106 "/>
<text text-anchor="middle" x="483" y="-91.5" font-family="Sans" font-size="10.00">image.jpg</text>
</g>
<!-- MMALImageEncoder&#45;&gt;FileOutput -->
<g id="edge2" class="edge"><title>MMALImageEncoder:output&#45;&gt;FileOutput</title>
<path fill="none" stroke="#447777" d="M364,-94C389.467,-94 418.025,-94 440.668,-94"/>
<polygon fill="#447777" stroke="#447777" points="440.944,-97.5001 450.944,-94 440.944,-90.5001 440.944,-97.5001"/>
<text text-anchor="middle" x="407.5" y="-97" font-family="Sans" font-size="10.00">callback fn</text>
<text text-anchor="middle" x="385" y="-86" font-family="Sans" font-size="10.00">JPEG</text>
<text text-anchor="middle" x="385" y="-75" font-family="Sans" font-size="10.00">640x480</text>
</g>
<!-- MMALRenderer -->
<g id="node3" class="node"><title>MMALRenderer</title>
<polygon fill="#77bbee" stroke="#447777" points="0,-131 0,-167 111,-167 111,-131 0,-131"/>
<text text-anchor="middle" x="11.5" y="-146.5" font-family="Sans" font-size="10.00">0</text>
<polyline fill="none" stroke="#447777" points="23,-131 23,-167 "/>
<text text-anchor="middle" x="67" y="-146.5" font-family="Sans" font-size="10.00">MMALRenderer</text>
</g>
<!-- FileInput -->
<g id="node4" class="node"><title>FileInput</title>
<polygon fill="#77bbee" stroke="#447777" points="85,-112 20,-112 20,-76 91,-76 91,-106 85,-112"/>
<polyline fill="none" stroke="#447777" points="85,-112 85,-106 "/>
<polyline fill="none" stroke="#447777" points="91,-106 85,-106 "/>
<text text-anchor="middle" x="55.5" y="-91.5" font-family="Sans" font-size="10.00">image.data</text>
</g>
<!-- FileInput&#45;&gt;MMALImageEncoder -->
<g id="edge1" class="edge"><title>FileInput&#45;&gt;MMALImageEncoder:input</title>
<path fill="none" stroke="#447777" d="M91.0711,-94C118.394,-94 157.813,-94 193.918,-94"/>
<polygon fill="#447777" stroke="#447777" points="194,-97.5001 204,-94 194,-90.5001 194,-97.5001"/>
<text text-anchor="middle" x="157.5" y="-97" font-family="Sans" font-size="10.00">send_buffer</text>
<text text-anchor="middle" x="183" y="-86" font-family="Sans" font-size="10.00">RGB3</text>
<text text-anchor="middle" x="183" y="-75" font-family="Sans" font-size="10.00">640x480</text>
</g>
</g>
</svg>
