<?xml version="1.0" encoding="UTF-8" standalone="no"?>
<!DOCTYPE svg PUBLIC "-//W3C//DTD SVG 1.1//EN"
 "http://www.w3.org/Graphics/SVG/1.1/DTD/svg11.dtd">
<!-- Generated by graphviz version 2.38.0 (20140413.2041)
 -->
<!-- Title: G Pages: 1 -->
<svg width="790pt" height="140pt"
 viewBox="0.00 0.00 790.00 140.00" xmlns="http://www.w3.org/2000/svg" xmlns:xlink="http://www.w3.org/1999/xlink">
<g id="graph0" class="graph" transform="scale(1 1) rotate(0) translate(4 136)">
<title>G</title>
<polygon fill="white" stroke="none" points="-4,4 -4,-136 786,-136 786,4 -4,4"/>
<!-- MMALCamera -->
<g id="node1" class="node"><title>MMALCamera</title>
<polygon fill="#77bbee" stroke="#447777" points="0,-52 0,-109 106,-109 106,-52 0,-52"/>
<text text-anchor="middle" x="41.5" y="-78" font-family="Sans" font-size="10.00">MMALCamera</text>
<polyline fill="none" stroke="#447777" points="83,-52 83,-109 "/>
<text text-anchor="middle" x="94.5" y="-97" font-family="Sans" font-size="10.00">0</text>
<polyline fill="none" stroke="#447777" points="83,-90 106,-90 "/>
<text text-anchor="middle" x="94.5" y="-78" font-family="Sans" font-size="10.00">1</text>
<polyline fill="none" stroke="#447777" points="83,-71 106,-71 "/>
<text text-anchor="middle" x="94.5" y="-59" font-family="Sans" font-size="10.00">2</text>
</g>
<!-- MMALSplitter -->
<g id="node2" class="node"><title>MMALSplitter</title>
<polygon fill="#77bbee" stroke="#447777" points="225,-0.5 225,-76.5 351,-76.5 351,-0.5 225,-0.5"/>
<text text-anchor="middle" x="236.5" y="-36" font-family="Sans" font-size="10.00">0</text>
<polyline fill="none" stroke="#447777" points="248,-0.5 248,-76.5 "/>
<text text-anchor="middle" x="288" y="-36" font-family="Sans" font-size="10.00">MMALSplitter</text>
<polyline fill="none" stroke="#447777" points="328,-0.5 328,-76.5 "/>
<text text-anchor="middle" x="339.5" y="-64.5" font-family="Sans" font-size="10.00">0</text>
<polyline fill="none" stroke="#447777" points="328,-57.5 351,-57.5 "/>
<text text-anchor="middle" x="339.5" y="-45.5" font-family="Sans" font-size="10.00">1</text>
<polyline fill="none" stroke="#447777" points="328,-38.5 351,-38.5 "/>
<text text-anchor="middle" x="339.5" y="-26.5" font-family="Sans" font-size="10.00">2</text>
<polyline fill="none" stroke="#447777" points="328,-19.5 351,-19.5 "/>
<text text-anchor="middle" x="339.5" y="-7.5" font-family="Sans" font-size="10.00">3</text>
</g>
<!-- MMALCamera&#45;&gt;MMALSplitter -->
<g id="edge2" class="edge"><title>MMALCamera:video&#45;&gt;MMALSplitter:input</title>
<path fill="none" stroke="#447777" d="M106,-80.5C158.471,-80.5 167.829,-43.7396 214.743,-39.0009"/>
<polygon fill="#447777" stroke="#447777" points="215.183,-42.4837 225,-38.5 214.841,-35.4921 215.183,-42.4837"/>
<text text-anchor="middle" x="165.5" y="-82.5" font-family="Sans" font-size="10.00">MMALConnection</text>
<text text-anchor="middle" x="201" y="-30.5" font-family="Sans" font-size="10.00">OPQV</text>
<text text-anchor="middle" x="201" y="-19.5" font-family="Sans" font-size="10.00">1280x720</text>
<text text-anchor="middle" x="130" y="-72.5" font-family="Sans" font-size="10.00">OPQV</text>
<text text-anchor="middle" x="130" y="-61.5" font-family="Sans" font-size="10.00">1280x720</text>
</g>
<!-- MMALNullSink -->
<g id="node3" class="node"><title>MMALNullSink</title>
<polygon fill="#77bbee" stroke="#447777" points="235,-95.5 235,-131.5 341,-131.5 341,-95.5 235,-95.5"/>
<text text-anchor="middle" x="246.5" y="-111" font-family="Sans" font-size="10.00">0</text>
<polyline fill="none" stroke="#447777" points="258,-95.5 258,-131.5 "/>
<text text-anchor="middle" x="299.5" y="-111" font-family="Sans" font-size="10.00">MMALNullSink</text>
</g>
<!-- MMALCamera&#45;&gt;MMALNullSink -->
<g id="edge1" class="edge"><title>MMALCamera:preview&#45;&gt;MMALNullSink:input</title>
<path fill="none" stroke="#447777" d="M106,-99.5C159.651,-99.5 174.908,-111.805 223.76,-113.343"/>
<polygon fill="#447777" stroke="#447777" points="223.947,-116.846 234,-113.5 224.055,-109.847 223.947,-116.846"/>
<text text-anchor="middle" x="165.5" y="-114.5" font-family="Sans" font-size="10.00">MMALConnection</text>
<text text-anchor="middle" x="210" y="-105.5" font-family="Sans" font-size="10.00">OPQV</text>
<text text-anchor="middle" x="210" y="-94.5" font-family="Sans" font-size="10.00">1280x720</text>
<text text-anchor="middle" x="130" y="-102.5" font-family="Sans" font-size="10.00">OPQV</text>
<text text-anchor="middle" x="130" y="-91.5" font-family="Sans" font-size="10.00">1280x720</text>
</g>
<!-- MMALVideoEncoder -->
<g id="node4" class="node"><title>MMALVideoEncoder</title>
<polygon fill="#77bbee" stroke="#447777" points="470,-49.5 470,-85.5 626,-85.5 626,-49.5 470,-49.5"/>
<text text-anchor="middle" x="481.5" y="-65" font-family="Sans" font-size="10.00">0</text>
<polyline fill="none" stroke="#447777" points="493,-49.5 493,-85.5 "/>
<text text-anchor="middle" x="548" y="-65" font-family="Sans" font-size="10.00">MMALVideoEncoder</text>
<polyline fill="none" stroke="#447777" points="603,-49.5 603,-85.5 "/>
<text text-anchor="middle" x="614.5" y="-65" font-family="Sans" font-size="10.00">0</text>
</g>
<!-- MMALSplitter&#45;&gt;MMALVideoEncoder -->
<g id="edge3" class="edge"><title>MMALSplitter:output0&#45;&gt;MMALVideoEncoder:input</title>
<path fill="none" stroke="#447777" d="M351,-67.5C400.377,-67.5 415.18,-67.5 459.965,-67.5"/>
<polygon fill="#447777" stroke="#447777" points="460,-71.0001 470,-67.5 460,-64.0001 460,-71.0001"/>
<text text-anchor="middle" x="410.5" y="-70.5" font-family="Sans" font-size="10.00">MMALConnection</text>
<text text-anchor="middle" x="446" y="-59.5" font-family="Sans" font-size="10.00">OPQV</text>
<text text-anchor="middle" x="446" y="-48.5" font-family="Sans" font-size="10.00">1280x720</text>
<text text-anchor="middle" x="375" y="-59.5" font-family="Sans" font-size="10.00">OPQV</text>
<text text-anchor="middle" x="375" y="-48.5" font-family="Sans" font-size="10.00">1280x720</text>
</g>
<!-- OutputFile -->
<g id="node5" class="node"><title>OutputFile</title>
<polygon fill="#77bbee" stroke="#447777" points="776,-85.5 713,-85.5 713,-49.5 782,-49.5 782,-79.5 776,-85.5"/>
<polyline fill="none" stroke="#447777" points="776,-85.5 776,-79.5 "/>
<polyline fill="none" stroke="#447777" points="782,-79.5 776,-79.5 "/>
<text text-anchor="middle" x="747.5" y="-65" font-family="Sans" font-size="10.00">video.h264</text>
</g>
<!-- MMALVideoEncoder&#45;&gt;OutputFile -->
<g id="edge4" class="edge"><title>MMALVideoEncoder:output&#45;&gt;OutputFile</title>
<path fill="none" stroke="#447777" d="M626,-67.5C651.489,-67.5 680.011,-67.5 702.905,-67.5"/>
<polygon fill="#447777" stroke="#447777" points="702.997,-71.0001 712.997,-67.5 702.997,-64.0001 702.997,-71.0001"/>
<text text-anchor="middle" x="669.5" y="-70.5" font-family="Sans" font-size="10.00">callback fn</text>
<text text-anchor="middle" x="650" y="-59.5" font-family="Sans" font-size="10.00">H264</text>
<text text-anchor="middle" x="650" y="-48.5" font-family="Sans" font-size="10.00">1280x720</text>
</g>
</g>
</svg>
