<?xml version="1.0" encoding="UTF-8" standalone="no"?>
<!DOCTYPE svg PUBLIC "-//W3C//DTD SVG 1.1//EN"
 "http://www.w3.org/Graphics/SVG/1.1/DTD/svg11.dtd">
<!-- Generated by graphviz version 2.38.0 (20140413.2041)
 -->
<!-- Title: G Pages: 1 -->
<svg width="344pt" height="75pt"
 viewBox="0.00 0.00 344.00 74.50" xmlns="http://www.w3.org/2000/svg" xmlns:xlink="http://www.w3.org/1999/xlink">
<g id="graph0" class="graph" transform="scale(1 1) rotate(0) translate(4 70.5)">
<title>G</title>
<polygon fill="white" stroke="none" points="-4,4 -4,-70.5 340,-70.5 340,4 -4,4"/>
<!-- MMALCamera -->
<g id="node1" class="node"><title>MMALCamera</title>
<polygon fill="#77bbee" stroke="#447777" points="0,-0.5 0,-57.5 106,-57.5 106,-0.5 0,-0.5"/>
<text text-anchor="middle" x="41.5" y="-26.5" font-family="Sans" font-size="10.00">MMALCamera</text>
<polyline fill="none" stroke="#447777" points="83,-0.5 83,-57.5 "/>
<text text-anchor="middle" x="94.5" y="-45.5" font-family="Sans" font-size="10.00">0</text>
<polyline fill="none" stroke="#447777" points="83,-38.5 106,-38.5 "/>
<text text-anchor="middle" x="94.5" y="-26.5" font-family="Sans" font-size="10.00">1</text>
<polyline fill="none" stroke="#447777" points="83,-19.5 106,-19.5 "/>
<text text-anchor="middle" x="94.5" y="-7.5" font-family="Sans" font-size="10.00">2</text>
</g>
<!-- MMALRenderer -->
<g id="node2" class="node"><title>MMALRenderer</title>
<polygon fill="#77bbee" stroke="#447777" points="225,-30 225,-66 336,-66 336,-30 225,-30"/>
<text text-anchor="middle" x="236.5" y="-45.5" font-family="Sans" font-size="10.00">0</text>
<polyline fill="none" stroke="#447777" points="248,-30 248,-66 "/>
<text text-anchor="middle" x="292" y="-45.5" font-family="Sans" font-size="10.00">MMALRenderer</text>
</g>
<!-- MMALCamera&#45;&gt;MMALRenderer -->
<g id="edge1" class="edge"><title>MMALCamera:preview&#45;&gt;MMALRenderer:input</title>
<path fill="none" stroke="#447777" d="M106,-48C155.377,-48 170.18,-48 214.965,-48"/>
<polygon fill="#447777" stroke="#447777" points="215,-51.5001 225,-48 215,-44.5001 215,-51.5001"/>
<text text-anchor="middle" x="165.5" y="-51" font-family="Sans" font-size="10.00">MMALConnection</text>
<text text-anchor="middle" x="204" y="-40" font-family="Sans" font-size="10.00">OPQV</text>
<text text-anchor="middle" x="204" y="-29" font-family="Sans" font-size="10.00">640x480</text>
<text text-anchor="middle" x="127" y="-40" font-family="Sans" font-size="10.00">OPQV</text>
<text text-anchor="middle" x="127" y="-29" font-family="Sans" font-size="10.00">640x480</text>
</g>
</g>
</svg>
