<?xml version="1.0" encoding="UTF-8" standalone="no"?>
<!DOCTYPE svg PUBLIC "-//W3C//DTD SVG 1.1//EN"
 "http://www.w3.org/Graphics/SVG/1.1/DTD/svg11.dtd">
<!-- Generated by graphviz version 2.38.0 (20140413.2041)
 -->
<!-- Title: G Pages: 1 -->
<svg width="277pt" height="134pt"
 viewBox="0.00 0.00 277.00 133.50" xmlns="http://www.w3.org/2000/svg" xmlns:xlink="http://www.w3.org/1999/xlink">
<g id="graph0" class="graph" transform="scale(1 1) rotate(0) translate(4 129.5)">
<title>G</title>
<polygon fill="white" stroke="none" points="-4,4 -4,-129.5 273,-129.5 273,4 -4,4"/>
<!-- MMALCamera -->
<g id="node1" class="node"><title>MMALCamera</title>
<polygon fill="#77bbee" stroke="#447777" points="2.5,-12.5 2.5,-69.5 108.5,-69.5 108.5,-12.5 2.5,-12.5"/>
<text text-anchor="middle" x="44" y="-38.5" font-family="Sans" font-size="10.00">MMALCamera</text>
<polyline fill="none" stroke="#447777" points="85.5,-12.5 85.5,-69.5 "/>
<text text-anchor="middle" x="97" y="-57.5" font-family="Sans" font-size="10.00">0</text>
<polyline fill="none" stroke="#447777" points="85.5,-50.5 108.5,-50.5 "/>
<text text-anchor="middle" x="97" y="-38.5" font-family="Sans" font-size="10.00">1</text>
<polyline fill="none" stroke="#447777" points="85.5,-31.5 108.5,-31.5 "/>
<text text-anchor="middle" x="97" y="-19.5" font-family="Sans" font-size="10.00">2</text>
</g>
<!-- FileOutput -->
<g id="node3" class="node"><title>FileOutput</title>
<polygon fill="#77bbee" stroke="#447777" points="263,-40 198,-40 198,-4 269,-4 269,-34 263,-40"/>
<polyline fill="none" stroke="#447777" points="263,-40 263,-34 "/>
<polyline fill="none" stroke="#447777" points="269,-34 263,-34 "/>
<text text-anchor="middle" x="233.5" y="-19.5" font-family="Sans" font-size="10.00">image.data</text>
</g>
<!-- MMALCamera&#45;&gt;FileOutput -->
<g id="edge1" class="edge"><title>MMALCamera:still&#45;&gt;FileOutput</title>
<path fill="none" stroke="#447777" d="M109.5,-22C135.333,-22 164.217,-22 187.501,-22"/>
<polygon fill="#447777" stroke="#447777" points="187.773,-25.5001 197.773,-22 187.773,-18.5001 187.773,-25.5001"/>
<text text-anchor="middle" x="154.5" y="-25" font-family="Sans" font-size="10.00">callback fn</text>
<text text-anchor="middle" x="130.5" y="-14" font-family="Sans" font-size="10.00">RGB3</text>
<text text-anchor="middle" x="130.5" y="-3" font-family="Sans" font-size="10.00">640x480</text>
</g>
<!-- MMALRenderer -->
<g id="node2" class="node"><title>MMALRenderer</title>
<polygon fill="#77bbee" stroke="#447777" points="0,-89 0,-125 111,-125 111,-89 0,-89"/>
<text text-anchor="middle" x="11.5" y="-104.5" font-family="Sans" font-size="10.00">0</text>
<polyline fill="none" stroke="#447777" points="23,-89 23,-125 "/>
<text text-anchor="middle" x="67" y="-104.5" font-family="Sans" font-size="10.00">MMALRenderer</text>
</g>
</g>
</svg>
