<?xml version="1.0" encoding="UTF-8" standalone="no"?>
<!DOCTYPE svg PUBLIC "-//W3C//DTD SVG 1.1//EN"
 "http://www.w3.org/Graphics/SVG/1.1/DTD/svg11.dtd">
<!-- Generated by graphviz version 2.36.0 (20140111.2315)
 -->
<!-- Title: G Pages: 1 -->
<svg width="908pt" height="66pt"
 viewBox="0.00 0.00 908.00 66.00" xmlns="http://www.w3.org/2000/svg" xmlns:xlink="http://www.w3.org/1999/xlink">
<g id="graph0" class="graph" transform="scale(1 1) rotate(0) translate(4 62)">
<title>G</title>
<polygon fill="white" stroke="none" points="-4,4 -4,-62 904,-62 904,4 -4,4"/>
<!-- bytes -->
<g id="node1" class="node"><title>bytes</title>
<polygon fill="none" stroke="black" points="0,-0.5 0,-57.5 900,-57.5 900,-0.5 0,-0.5"/>
<text text-anchor="middle" x="90.5" y="-45.5" font-family="Arial" font-size="10.00">Byte 1</text>
<polyline fill="none" stroke="black" points="0,-38.5 181,-38.5 "/>
<text text-anchor="middle" x="13.5" y="-26.5" font-family="Arial" font-size="10.00">10</text>
<polyline fill="none" stroke="black" points="27,-19.5 27,-38.5 "/>
<text text-anchor="middle" x="38" y="-26.5" font-family="Arial" font-size="10.00">9</text>
<polyline fill="none" stroke="black" points="49,-19.5 49,-38.5 "/>
<text text-anchor="middle" x="60" y="-26.5" font-family="Arial" font-size="10.00">8</text>
<polyline fill="none" stroke="black" points="71,-19.5 71,-38.5 "/>
<text text-anchor="middle" x="82" y="-26.5" font-family="Arial" font-size="10.00">7</text>
<polyline fill="none" stroke="black" points="93,-19.5 93,-38.5 "/>
<text text-anchor="middle" x="104" y="-26.5" font-family="Arial" font-size="10.00">6</text>
<polyline fill="none" stroke="black" points="115,-19.5 115,-38.5 "/>
<text text-anchor="middle" x="126" y="-26.5" font-family="Arial" font-size="10.00">5</text>
<polyline fill="none" stroke="black" points="137,-19.5 137,-38.5 "/>
<text text-anchor="middle" x="148" y="-26.5" font-family="Arial" font-size="10.00">4</text>
<polyline fill="none" stroke="black" points="159,-19.5 159,-38.5 "/>
<text text-anchor="middle" x="170" y="-26.5" font-family="Arial" font-size="10.00">3</text>
<polyline fill="none" stroke="black" points="0,-19.5 181,-19.5 "/>
<text text-anchor="middle" x="90.5" y="-7.5" font-family="Arial" font-size="10.00">A</text>
<polyline fill="none" stroke="black" points="181,-0.5 181,-57.5 "/>
<text text-anchor="middle" x="271.5" y="-45.5" font-family="Arial" font-size="10.00">Byte 2</text>
<polyline fill="none" stroke="black" points="181,-38.5 362,-38.5 "/>
<text text-anchor="middle" x="194.5" y="-26.5" font-family="Arial" font-size="10.00">10</text>
<polyline fill="none" stroke="black" points="208,-19.5 208,-38.5 "/>
<text text-anchor="middle" x="219" y="-26.5" font-family="Arial" font-size="10.00">9</text>
<polyline fill="none" stroke="black" points="230,-19.5 230,-38.5 "/>
<text text-anchor="middle" x="241" y="-26.5" font-family="Arial" font-size="10.00">8</text>
<polyline fill="none" stroke="black" points="252,-19.5 252,-38.5 "/>
<text text-anchor="middle" x="263" y="-26.5" font-family="Arial" font-size="10.00">7</text>
<polyline fill="none" stroke="black" points="274,-19.5 274,-38.5 "/>
<text text-anchor="middle" x="285" y="-26.5" font-family="Arial" font-size="10.00">6</text>
<polyline fill="none" stroke="black" points="296,-19.5 296,-38.5 "/>
<text text-anchor="middle" x="307" y="-26.5" font-family="Arial" font-size="10.00">5</text>
<polyline fill="none" stroke="black" points="318,-19.5 318,-38.5 "/>
<text text-anchor="middle" x="329" y="-26.5" font-family="Arial" font-size="10.00">4</text>
<polyline fill="none" stroke="black" points="340,-19.5 340,-38.5 "/>
<text text-anchor="middle" x="351" y="-26.5" font-family="Arial" font-size="10.00">3</text>
<polyline fill="none" stroke="black" points="181,-19.5 362,-19.5 "/>
<text text-anchor="middle" x="271.5" y="-7.5" font-family="Arial" font-size="10.00">B</text>
<polyline fill="none" stroke="black" points="362,-0.5 362,-57.5 "/>
<text text-anchor="middle" x="452.5" y="-45.5" font-family="Arial" font-size="10.00">Byte 3</text>
<polyline fill="none" stroke="black" points="362,-38.5 543,-38.5 "/>
<text text-anchor="middle" x="375.5" y="-26.5" font-family="Arial" font-size="10.00">10</text>
<polyline fill="none" stroke="black" points="389,-19.5 389,-38.5 "/>
<text text-anchor="middle" x="400" y="-26.5" font-family="Arial" font-size="10.00">9</text>
<polyline fill="none" stroke="black" points="411,-19.5 411,-38.5 "/>
<text text-anchor="middle" x="422" y="-26.5" font-family="Arial" font-size="10.00">8</text>
<polyline fill="none" stroke="black" points="433,-19.5 433,-38.5 "/>
<text text-anchor="middle" x="444" y="-26.5" font-family="Arial" font-size="10.00">7</text>
<polyline fill="none" stroke="black" points="455,-19.5 455,-38.5 "/>
<text text-anchor="middle" x="466" y="-26.5" font-family="Arial" font-size="10.00">6</text>
<polyline fill="none" stroke="black" points="477,-19.5 477,-38.5 "/>
<text text-anchor="middle" x="488" y="-26.5" font-family="Arial" font-size="10.00">5</text>
<polyline fill="none" stroke="black" points="499,-19.5 499,-38.5 "/>
<text text-anchor="middle" x="510" y="-26.5" font-family="Arial" font-size="10.00">4</text>
<polyline fill="none" stroke="black" points="521,-19.5 521,-38.5 "/>
<text text-anchor="middle" x="532" y="-26.5" font-family="Arial" font-size="10.00">3</text>
<polyline fill="none" stroke="black" points="362,-19.5 543,-19.5 "/>
<text text-anchor="middle" x="452.5" y="-7.5" font-family="Arial" font-size="10.00">C</text>
<polyline fill="none" stroke="black" points="543,-0.5 543,-57.5 "/>
<text text-anchor="middle" x="633.5" y="-45.5" font-family="Arial" font-size="10.00">Byte 4</text>
<polyline fill="none" stroke="black" points="543,-38.5 724,-38.5 "/>
<text text-anchor="middle" x="556.5" y="-26.5" font-family="Arial" font-size="10.00">10</text>
<polyline fill="none" stroke="black" points="570,-19.5 570,-38.5 "/>
<text text-anchor="middle" x="581" y="-26.5" font-family="Arial" font-size="10.00">9</text>
<polyline fill="none" stroke="black" points="592,-19.5 592,-38.5 "/>
<text text-anchor="middle" x="603" y="-26.5" font-family="Arial" font-size="10.00">8</text>
<polyline fill="none" stroke="black" points="614,-19.5 614,-38.5 "/>
<text text-anchor="middle" x="625" y="-26.5" font-family="Arial" font-size="10.00">7</text>
<polyline fill="none" stroke="black" points="636,-19.5 636,-38.5 "/>
<text text-anchor="middle" x="647" y="-26.5" font-family="Arial" font-size="10.00">6</text>
<polyline fill="none" stroke="black" points="658,-19.5 658,-38.5 "/>
<text text-anchor="middle" x="669" y="-26.5" font-family="Arial" font-size="10.00">5</text>
<polyline fill="none" stroke="black" points="680,-19.5 680,-38.5 "/>
<text text-anchor="middle" x="691" y="-26.5" font-family="Arial" font-size="10.00">4</text>
<polyline fill="none" stroke="black" points="702,-19.5 702,-38.5 "/>
<text text-anchor="middle" x="713" y="-26.5" font-family="Arial" font-size="10.00">3</text>
<polyline fill="none" stroke="black" points="543,-19.5 724,-19.5 "/>
<text text-anchor="middle" x="633.5" y="-7.5" font-family="Arial" font-size="10.00">D</text>
<polyline fill="none" stroke="black" points="724,-0.5 724,-57.5 "/>
<text text-anchor="middle" x="812" y="-45.5" font-family="Arial" font-size="10.00">Byte 5</text>
<polyline fill="none" stroke="black" points="724,-38.5 900,-38.5 "/>
<text text-anchor="middle" x="735" y="-26.5" font-family="Arial" font-size="10.00">2</text>
<polyline fill="none" stroke="black" points="746,-19.5 746,-38.5 "/>
<text text-anchor="middle" x="757" y="-26.5" font-family="Arial" font-size="10.00">1</text>
<polyline fill="none" stroke="black" points="768,-19.5 768,-38.5 "/>
<text text-anchor="middle" x="779" y="-26.5" font-family="Arial" font-size="10.00">2</text>
<polyline fill="none" stroke="black" points="790,-19.5 790,-38.5 "/>
<text text-anchor="middle" x="801" y="-26.5" font-family="Arial" font-size="10.00">1</text>
<polyline fill="none" stroke="black" points="812,-19.5 812,-38.5 "/>
<text text-anchor="middle" x="823" y="-26.5" font-family="Arial" font-size="10.00">2</text>
<polyline fill="none" stroke="black" points="834,-19.5 834,-38.5 "/>
<text text-anchor="middle" x="845" y="-26.5" font-family="Arial" font-size="10.00">1</text>
<polyline fill="none" stroke="black" points="856,-19.5 856,-38.5 "/>
<text text-anchor="middle" x="867" y="-26.5" font-family="Arial" font-size="10.00">2</text>
<polyline fill="none" stroke="black" points="878,-19.5 878,-38.5 "/>
<text text-anchor="middle" x="889" y="-26.5" font-family="Arial" font-size="10.00">1</text>
<polyline fill="none" stroke="black" points="724,-19.5 900,-19.5 "/>
<text text-anchor="middle" x="746" y="-7.5" font-family="Arial" font-size="10.00">A</text>
<polyline fill="none" stroke="black" points="768,-0.5 768,-19.5 "/>
<text text-anchor="middle" x="790" y="-7.5" font-family="Arial" font-size="10.00">B</text>
<polyline fill="none" stroke="black" points="812,-0.5 812,-19.5 "/>
<text text-anchor="middle" x="834" y="-7.5" font-family="Arial" font-size="10.00">C</text>
<polyline fill="none" stroke="black" points="856,-0.5 856,-19.5 "/>
<text text-anchor="middle" x="878" y="-7.5" font-family="Arial" font-size="10.00">D</text>
</g>
</g>
</svg>
