<?xml version="1.0" encoding="UTF-8" standalone="no"?>
<!DOCTYPE svg PUBLIC "-//W3C//DTD SVG 1.1//EN"
 "http://www.w3.org/Graphics/SVG/1.1/DTD/svg11.dtd">
<!-- Generated by graphviz version 2.36.0 (20140111.2315)
 -->
<!-- Title: G Pages: 1 -->
<svg width="702pt" height="260pt"
 viewBox="0.00 0.00 702.00 260.00" xmlns="http://www.w3.org/2000/svg" xmlns:xlink="http://www.w3.org/1999/xlink">
<g id="graph0" class="graph" transform="scale(1 1) rotate(0) translate(4 256)">
<title>G</title>
<polygon fill="white" stroke="none" points="-4,4 -4,-256 698,-256 698,4 -4,4"/>
<!-- PiEncoder -->
<g id="node1" class="node"><title>PiEncoder</title>
<g id="a_node1"><a xlink:href="../api.html#picamera.PiEncoder" xlink:title="PiEncoder" target="_top">
<polygon fill="#ffffff" stroke="#000000" points="552,-252 480,-252 480,-216 552,-216 552,-252"/>
<text text-anchor="middle" x="516" y="-230.9" font-family="Arial" font-size="12.00">PiEncoder</text>
</a>
</g>
</g>
<!-- PiImageEncoder -->
<g id="node2" class="node"><title>PiImageEncoder</title>
<g id="a_node2"><a xlink:href="../api.html#picamera.PiImageEncoder" xlink:title="PiImageEncoder" target="_top">
<polygon fill="#ffffff" stroke="#000000" points="507,-180 403,-180 403,-144 507,-144 507,-180"/>
<text text-anchor="middle" x="455" y="-158.9" font-family="Arial" font-size="12.00">PiImageEncoder</text>
</a>
</g>
</g>
<!-- PiImageEncoder&#45;&gt;PiEncoder -->
<g id="edge2" class="edge"><title>PiImageEncoder&#45;&gt;PiEncoder</title>
<path fill="none" stroke="black" d="M470.079,-180.303C477.392,-188.695 486.31,-198.93 494.335,-208.139"/>
<polygon fill="black" stroke="black" points="491.886,-210.656 501.095,-215.896 497.164,-206.057 491.886,-210.656"/>
</g>
<!-- PiOneImageEncoder -->
<g id="node3" class="node"><title>PiOneImageEncoder</title>
<g id="a_node3"><a xlink:href="../api.html#picamera.PiOneImageEncoder" xlink:title="PiOneImageEncoder" target="_top">
<polygon fill="#ffffff" stroke="#000000" points="358,-108 232,-108 232,-72 358,-72 358,-108"/>
<text text-anchor="middle" x="295" y="-86.9" font-family="Arial" font-size="12.00">PiOneImageEncoder</text>
</a>
</g>
</g>
<!-- PiOneImageEncoder&#45;&gt;PiImageEncoder -->
<g id="edge3" class="edge"><title>PiOneImageEncoder&#45;&gt;PiImageEncoder</title>
<path fill="none" stroke="black" d="M334.14,-108.124C356.013,-117.693 383.457,-129.7 406.662,-139.852"/>
<polygon fill="black" stroke="black" points="405.422,-143.13 415.987,-143.932 408.228,-136.717 405.422,-143.13"/>
</g>
<!-- PiMultiImageEncoder -->
<g id="node4" class="node"><title>PiMultiImageEncoder</title>
<g id="a_node4"><a xlink:href="../api.html#picamera.PiMultiImageEncoder" xlink:title="PiMultiImageEncoder" target="_top">
<polygon fill="#ffffff" stroke="#000000" points="675,-108 547,-108 547,-72 675,-72 675,-108"/>
<text text-anchor="middle" x="611" y="-86.9" font-family="Arial" font-size="12.00">PiMultiImageEncoder</text>
</a>
</g>
</g>
<!-- PiMultiImageEncoder&#45;&gt;PiImageEncoder -->
<g id="edge4" class="edge"><title>PiMultiImageEncoder&#45;&gt;PiImageEncoder</title>
<path fill="none" stroke="black" d="M572.838,-108.124C551.607,-117.651 524.992,-129.593 502.431,-139.717"/>
<polygon fill="black" stroke="black" points="500.729,-136.644 493.038,-143.932 503.594,-143.031 500.729,-136.644"/>
</g>
<!-- PiRawEncoderMixin -->
<g id="node5" class="node"><title>PiRawEncoderMixin</title>
<g id="a_node5"><a xlink:href="../api.html#picamera.PiRawEncoderMixin" xlink:title="PiRawEncoderMixin" target="_top">
<polygon fill="#ffffff" stroke="#000000" points="516,-108 394,-108 394,-72 516,-72 516,-108"/>
<text text-anchor="middle" x="455" y="-86.9" font-family="Arial" font-size="12.00">PiRawEncoderMixin</text>
</a>
</g>
</g>
<!-- PiRawEncoderMixin&#45;&gt;PiImageEncoder -->
<g id="edge7" class="edge"><title>PiRawEncoderMixin&#45;&gt;PiImageEncoder</title>
<path fill="none" stroke="black" d="M455,-108.303C455,-116.017 455,-125.288 455,-133.888"/>
<polygon fill="black" stroke="black" points="451.5,-133.896 455,-143.896 458.5,-133.896 451.5,-133.896"/>
</g>
<!-- PiVideoEncoder -->
<g id="node6" class="node"><title>PiVideoEncoder</title>
<g id="a_node6"><a xlink:href="../api.html#picamera.PiVideoEncoder" xlink:title="PiVideoEncoder" target="_top">
<polygon fill="#99aadd" stroke="#000000" points="629,-180 525,-180 525,-144 629,-144 629,-180"/>
<text text-anchor="middle" x="577" y="-158.9" font-family="Arial" font-size="12.00">PiVideoEncoder</text>
</a>
</g>
</g>
<!-- PiVideoEncoder&#45;&gt;PiEncoder -->
<g id="edge1" class="edge"><title>PiVideoEncoder&#45;&gt;PiEncoder</title>
<path fill="none" stroke="black" d="M561.921,-180.303C554.608,-188.695 545.69,-198.93 537.665,-208.139"/>
<polygon fill="black" stroke="black" points="534.836,-206.057 530.905,-215.896 540.114,-210.656 534.836,-206.057"/>
</g>
<!-- PiRawOneImageEncoder -->
<g id="node7" class="node"><title>PiRawOneImageEncoder</title>
<g id="a_node7"><a xlink:href="../api.html#picamera.PiRawOneImageEncoder" xlink:title="PiRawOneImageEncoder" target="_top">
<polygon fill="#99aadd" stroke="#000000" points="523.5,-36 374.5,-36 374.5,-0 523.5,-0 523.5,-36"/>
<text text-anchor="middle" x="449" y="-14.9" font-family="Arial" font-size="12.00">PiRawOneImageEncoder</text>
</a>
</g>
</g>
<!-- PiRawOneImageEncoder&#45;&gt;PiOneImageEncoder -->
<g id="edge8" class="edge"><title>PiRawOneImageEncoder&#45;&gt;PiOneImageEncoder</title>
<path fill="none" stroke="black" d="M411.327,-36.1239C390.368,-45.6508 364.095,-57.5932 341.823,-67.7167"/>
<polygon fill="black" stroke="black" points="340.206,-64.6073 332.55,-71.9317 343.102,-70.9799 340.206,-64.6073"/>
</g>
<!-- PiRawOneImageEncoder&#45;&gt;PiRawEncoderMixin -->
<g id="edge9" class="edge"><title>PiRawOneImageEncoder&#45;&gt;PiRawEncoderMixin</title>
<path fill="none" stroke="black" d="M450.483,-36.3034C451.144,-44.0173 451.939,-53.2875 452.676,-61.8876"/>
<polygon fill="black" stroke="black" points="449.193,-62.2311 453.534,-71.8957 456.167,-61.6333 449.193,-62.2311"/>
</g>
<!-- PiRawMultiImageEncoder -->
<g id="node8" class="node"><title>PiRawMultiImageEncoder</title>
<g id="a_node8"><a xlink:href="../api.html#picamera.PiRawMultiImageEncoder" xlink:title="PiRawMultiImageEncoder" target="_top">
<polygon fill="#99aadd" stroke="#000000" points="694,-36 542,-36 542,-0 694,-0 694,-36"/>
<text text-anchor="middle" x="618" y="-14.9" font-family="Arial" font-size="12.00">PiRawMultiImageEncoder</text>
</a>
</g>
</g>
<!-- PiRawMultiImageEncoder&#45;&gt;PiMultiImageEncoder -->
<g id="edge10" class="edge"><title>PiRawMultiImageEncoder&#45;&gt;PiMultiImageEncoder</title>
<path fill="none" stroke="black" d="M616.27,-36.3034C615.498,-44.0173 614.571,-53.2875 613.711,-61.8876"/>
<polygon fill="black" stroke="black" points="610.223,-61.597 612.71,-71.8957 617.188,-62.2936 610.223,-61.597"/>
</g>
<!-- PiRawMultiImageEncoder&#45;&gt;PiRawEncoderMixin -->
<g id="edge11" class="edge"><title>PiRawMultiImageEncoder&#45;&gt;PiRawEncoderMixin</title>
<path fill="none" stroke="black" d="M578.126,-36.1239C555.843,-45.6934 527.885,-57.6999 504.244,-67.8522"/>
<polygon fill="black" stroke="black" points="502.552,-64.7696 494.745,-71.9317 505.314,-71.2016 502.552,-64.7696"/>
</g>
<!-- PiCookedOneImageEncoder -->
<g id="node9" class="node"><title>PiCookedOneImageEncoder</title>
<g id="a_node9"><a xlink:href="../api.html#picamera.PiCookedOneImageEncoder" xlink:title="PiCookedOneImageEncoder" target="_top">
<polygon fill="#99aadd" stroke="#000000" points="168,-36 1.42109e-14,-36 1.42109e-14,-0 168,-0 168,-36"/>
<text text-anchor="middle" x="84" y="-14.9" font-family="Arial" font-size="12.00">PiCookedOneImageEncoder</text>
</a>
</g>
</g>
<!-- PiCookedOneImageEncoder&#45;&gt;PiOneImageEncoder -->
<g id="edge5" class="edge"><title>PiCookedOneImageEncoder&#45;&gt;PiOneImageEncoder</title>
<path fill="none" stroke="black" d="M135.347,-36.0344C164.956,-45.8575 202.374,-58.2709 233.541,-68.6109"/>
<polygon fill="black" stroke="black" points="232.83,-72.0623 243.423,-71.8892 235.034,-65.4184 232.83,-72.0623"/>
</g>
<!-- PiCookedMultiImageEncoder -->
<g id="node10" class="node"><title>PiCookedMultiImageEncoder</title>
<g id="a_node10"><a xlink:href="../api.html#picamera.PiCookedMultiImageEncoder" xlink:title="PiCookedMultiImageEncoder" target="_top">
<polygon fill="#99aadd" stroke="#000000" points="356,-36 186,-36 186,-0 356,-0 356,-36"/>
<text text-anchor="middle" x="271" y="-14.9" font-family="Arial" font-size="12.00">PiCookedMultiImageEncoder</text>
</a>
</g>
</g>
<!-- PiCookedMultiImageEncoder&#45;&gt;PiOneImageEncoder -->
<g id="edge6" class="edge"><title>PiCookedMultiImageEncoder&#45;&gt;PiOneImageEncoder</title>
<path fill="none" stroke="black" d="M276.933,-36.3034C279.606,-44.1021 282.826,-53.4915 285.801,-62.1708"/>
<polygon fill="black" stroke="black" points="282.582,-63.5714 289.136,-71.8957 289.203,-61.301 282.582,-63.5714"/>
</g>
</g>
</svg>
