<?xml version="1.0" encoding="UTF-8" standalone="no"?>
<!DOCTYPE svg PUBLIC "-//W3C//DTD SVG 1.1//EN"
 "http://www.w3.org/Graphics/SVG/1.1/DTD/svg11.dtd">
<!-- Generated by graphviz version 2.26.3 (20100126.1600)
 -->
<!-- Title: G Pages: 1 -->
<svg width="863pt" height="260pt"
 viewBox="0.00 0.00 863.00 260.00" xmlns="http://www.w3.org/2000/svg" xmlns:xlink="http://www.w3.org/1999/xlink">
<g id="graph1" class="graph" transform="scale(1 1) rotate(0) translate(4 256)">
<title>G</title>
<polygon fill="white" stroke="white" points="-4,5 -4,-256 860,-256 860,5 -4,5"/>
<!-- PiEncoder -->
<g id="node1" class="node"><title>PiEncoder</title>
<a xlink:href="../api.html#picamera.PiEncoder" xlink:title="PiEncoder" target="_top">
<polygon fill="#ffffff" stroke="#000000" points="539,-252 467,-252 467,-216 539,-216 539,-252"/>
<text text-anchor="middle" x="503" y="-229.7" font-family="Arial" font-size="12.00">PiEncoder</text>
</a>
</g>
<!-- PiImageEncoder -->
<g id="node2" class="node"><title>PiImageEncoder</title>
<a xlink:href="../api.html#picamera.PiImageEncoder" xlink:title="PiImageEncoder" target="_top">
<polygon fill="#ffffff" stroke="#000000" points="415,-180 311,-180 311,-144 415,-144 415,-180"/>
<text text-anchor="middle" x="363" y="-157.7" font-family="Arial" font-size="12.00">PiImageEncoder</text>
</a>
</g>
<!-- PiImageEncoder&#45;&gt;PiEncoder -->
<g id="edge2" class="edge"><title>PiImageEncoder&#45;&gt;PiEncoder</title>
<path fill="none" stroke="black" d="M398.328,-180.169C416.649,-189.591 439.21,-201.194 458.689,-211.212"/>
<polygon fill="black" stroke="black" points="457.19,-214.376 467.683,-215.837 460.391,-208.151 457.19,-214.376"/>
</g>
<!-- PiVideoEncoder -->
<g id="node3" class="node"><title>PiVideoEncoder</title>
<a xlink:href="../api.html#picamera.PiVideoEncoder" xlink:title="PiVideoEncoder" target="_top">
<polygon fill="#ffffff" stroke="#000000" points="680,-180 576,-180 576,-144 680,-144 680,-180"/>
<text text-anchor="middle" x="628" y="-157.7" font-family="Arial" font-size="12.00">PiVideoEncoder</text>
</a>
</g>
<!-- PiVideoEncoder&#45;&gt;PiEncoder -->
<g id="edge4" class="edge"><title>PiVideoEncoder&#45;&gt;PiEncoder</title>
<path fill="none" stroke="black" d="M596.457,-180.169C580.321,-189.463 560.501,-200.879 543.273,-210.803"/>
<polygon fill="black" stroke="black" points="541.451,-207.813 534.533,-215.837 544.945,-213.879 541.451,-207.813"/>
</g>
<!-- PiOneImageEncoder -->
<g id="node4" class="node"><title>PiOneImageEncoder</title>
<a xlink:href="../api.html#picamera.PiOneImageEncoder" xlink:title="PiOneImageEncoder" target="_top">
<polygon fill="#ffffff" stroke="#000000" points="547,-108 421,-108 421,-72 547,-72 547,-108"/>
<text text-anchor="middle" x="484" y="-85.7" font-family="Arial" font-size="12.00">PiOneImageEncoder</text>
</a>
</g>
<!-- PiOneImageEncoder&#45;&gt;PiImageEncoder -->
<g id="edge8" class="edge"><title>PiOneImageEncoder&#45;&gt;PiImageEncoder</title>
<path fill="none" stroke="black" d="M453.467,-108.169C437.99,-117.378 419.013,-128.67 402.444,-138.529"/>
<polygon fill="black" stroke="black" points="400.328,-135.716 393.524,-143.837 403.907,-141.731 400.328,-135.716"/>
</g>
<!-- PiMultiImageEncoder -->
<g id="node5" class="node"><title>PiMultiImageEncoder</title>
<a xlink:href="../api.html#picamera.PiMultiImageEncoder" xlink:title="PiMultiImageEncoder" target="_top">
<polygon fill="#ffffff" stroke="#000000" points="275,-108 147,-108 147,-72 275,-72 275,-108"/>
<text text-anchor="middle" x="211" y="-85.7" font-family="Arial" font-size="12.00">PiMultiImageEncoder</text>
</a>
</g>
<!-- PiMultiImageEncoder&#45;&gt;PiImageEncoder -->
<g id="edge10" class="edge"><title>PiMultiImageEncoder&#45;&gt;PiImageEncoder</title>
<path fill="none" stroke="black" d="M249.356,-108.169C269.504,-117.713 294.375,-129.494 315.708,-139.599"/>
<polygon fill="black" stroke="black" points="314.384,-142.844 324.92,-143.962 317.381,-136.518 314.384,-142.844"/>
</g>
<!-- PiRawMixin -->
<g id="node6" class="node"><title>PiRawMixin</title>
<a xlink:href="../api.html#picamera.PiRawMixin" xlink:title="PiRawMixin" target="_top">
<polygon fill="#ffffff" stroke="#000000" points="542,-180 464,-180 464,-144 542,-144 542,-180"/>
<text text-anchor="middle" x="503" y="-157.7" font-family="Arial" font-size="12.00">PiRawMixin</text>
</a>
</g>
<!-- PiRawMixin&#45;&gt;PiEncoder -->
<g id="edge6" class="edge"><title>PiRawMixin&#45;&gt;PiEncoder</title>
<path fill="none" stroke="black" d="M503,-180.169C503,-187.869 503,-197.026 503,-205.583"/>
<polygon fill="black" stroke="black" points="499.5,-205.587 503,-215.587 506.5,-205.587 499.5,-205.587"/>
</g>
<!-- PiRawImageMixin -->
<g id="node7" class="node"><title>PiRawImageMixin</title>
<a xlink:href="../api.html#picamera.PiRawImageMixin" xlink:title="PiRawImageMixin" target="_top">
<polygon fill="#ffffff" stroke="#000000" points="403,-108 293,-108 293,-72 403,-72 403,-108"/>
<text text-anchor="middle" x="348" y="-85.7" font-family="Arial" font-size="12.00">PiRawImageMixin</text>
</a>
</g>
<!-- PiRawImageMixin&#45;&gt;PiImageEncoder -->
<g id="edge20" class="edge"><title>PiRawImageMixin&#45;&gt;PiImageEncoder</title>
<path fill="none" stroke="black" d="M351.785,-108.169C353.389,-115.869 355.297,-125.026 357.08,-133.583"/>
<polygon fill="black" stroke="black" points="353.698,-134.511 359.164,-143.587 360.551,-133.083 353.698,-134.511"/>
</g>
<!-- PiRawImageMixin&#45;&gt;PiRawMixin -->
<g id="edge18" class="edge"><title>PiRawImageMixin&#45;&gt;PiRawMixin</title>
<path fill="none" stroke="black" d="M387.113,-108.169C407.751,-117.755 433.248,-129.599 455.067,-139.734"/>
<polygon fill="black" stroke="black" points="453.624,-142.923 464.168,-143.962 456.573,-136.575 453.624,-142.923"/>
</g>
<!-- PiRawOneImageEncoder -->
<g id="node8" class="node"><title>PiRawOneImageEncoder</title>
<a xlink:href="../api.html#picamera.PiRawOneImageEncoder" xlink:title="PiRawOneImageEncoder" target="_top">
<polygon fill="#99aadd" stroke="#000000" points="506,-36 358,-36 358,-1.77636e-14 506,-3.55271e-15 506,-36"/>
<text text-anchor="middle" x="432" y="-13.7" font-family="Arial" font-size="12.00">PiRawOneImageEncoder</text>
</a>
</g>
<!-- PiRawOneImageEncoder&#45;&gt;PiOneImageEncoder -->
<g id="edge22" class="edge"><title>PiRawOneImageEncoder&#45;&gt;PiOneImageEncoder</title>
<path fill="none" stroke="black" d="M445.122,-36.1686C451.05,-44.3768 458.173,-54.2394 464.693,-63.2677"/>
<polygon fill="black" stroke="black" points="462.009,-65.5292 470.702,-71.5867 467.684,-61.4307 462.009,-65.5292"/>
</g>
<!-- PiRawOneImageEncoder&#45;&gt;PiRawImageMixin -->
<g id="edge24" class="edge"><title>PiRawOneImageEncoder&#45;&gt;PiRawImageMixin</title>
<path fill="none" stroke="black" d="M410.803,-36.1686C400.557,-44.9515 388.1,-55.6288 376.99,-65.1511"/>
<polygon fill="black" stroke="black" points="374.505,-62.6718 369.19,-71.8372 379.06,-67.9866 374.505,-62.6718"/>
</g>
<!-- PiRawMultiImageEncoder -->
<g id="node9" class="node"><title>PiRawMultiImageEncoder</title>
<a xlink:href="../api.html#picamera.PiRawMultiImageEncoder" xlink:title="PiRawMultiImageEncoder" target="_top">
<polygon fill="#99aadd" stroke="#000000" points="340,-36 188,-36 188,-1.77636e-14 340,-3.55271e-15 340,-36"/>
<text text-anchor="middle" x="264" y="-13.7" font-family="Arial" font-size="12.00">PiRawMultiImageEncoder</text>
</a>
</g>
<!-- PiRawMultiImageEncoder&#45;&gt;PiMultiImageEncoder -->
<g id="edge26" class="edge"><title>PiRawMultiImageEncoder&#45;&gt;PiMultiImageEncoder</title>
<path fill="none" stroke="black" d="M250.626,-36.1686C244.584,-44.3768 237.324,-54.2394 230.678,-63.2677"/>
<polygon fill="black" stroke="black" points="227.664,-61.4585 224.554,-71.5867 233.301,-65.6082 227.664,-61.4585"/>
</g>
<!-- PiRawMultiImageEncoder&#45;&gt;PiRawImageMixin -->
<g id="edge28" class="edge"><title>PiRawMultiImageEncoder&#45;&gt;PiRawImageMixin</title>
<path fill="none" stroke="black" d="M285.197,-36.1686C295.443,-44.9515 307.9,-55.6288 319.01,-65.1511"/>
<polygon fill="black" stroke="black" points="316.94,-67.9866 326.81,-71.8372 321.495,-62.6718 316.94,-67.9866"/>
</g>
<!-- PiRawVideoEncoder -->
<g id="node10" class="node"><title>PiRawVideoEncoder</title>
<a xlink:href="../api.html#picamera.PiRawVideoEncoder" xlink:title="PiRawVideoEncoder" target="_top">
<polygon fill="#99aadd" stroke="#000000" points="691,-108 565,-108 565,-72 691,-72 691,-108"/>
<text text-anchor="middle" x="628" y="-85.7" font-family="Arial" font-size="12.00">PiRawVideoEncoder</text>
</a>
</g>
<!-- PiRawVideoEncoder&#45;&gt;PiVideoEncoder -->
<g id="edge32" class="edge"><title>PiRawVideoEncoder&#45;&gt;PiVideoEncoder</title>
<path fill="none" stroke="black" d="M628,-108.169C628,-115.869 628,-125.026 628,-133.583"/>
<polygon fill="black" stroke="black" points="624.5,-133.587 628,-143.587 631.5,-133.587 624.5,-133.587"/>
</g>
<!-- PiRawVideoEncoder&#45;&gt;PiRawMixin -->
<g id="edge30" class="edge"><title>PiRawVideoEncoder&#45;&gt;PiRawMixin</title>
<path fill="none" stroke="black" d="M596.457,-108.169C580.321,-117.463 560.501,-128.879 543.273,-138.803"/>
<polygon fill="black" stroke="black" points="541.451,-135.813 534.533,-143.837 544.945,-141.879 541.451,-135.813"/>
</g>
<!-- PiCookedOneImageEncoder -->
<g id="node11" class="node"><title>PiCookedOneImageEncoder</title>
<a xlink:href="../api.html#picamera.PiCookedOneImageEncoder" xlink:title="PiCookedOneImageEncoder" target="_top">
<polygon fill="#99aadd" stroke="#000000" points="692,-36 524,-36 524,-1.77636e-14 692,-3.55271e-15 692,-36"/>
<text text-anchor="middle" x="608" y="-13.7" font-family="Arial" font-size="12.00">PiCookedOneImageEncoder</text>
</a>
</g>
<!-- PiCookedOneImageEncoder&#45;&gt;PiOneImageEncoder -->
<g id="edge12" class="edge"><title>PiCookedOneImageEncoder&#45;&gt;PiOneImageEncoder</title>
<path fill="none" stroke="black" d="M576.71,-36.1686C560.702,-45.4632 541.041,-56.8792 523.951,-66.8029"/>
<polygon fill="black" stroke="black" points="522.171,-63.789 515.28,-71.8372 525.686,-69.8425 522.171,-63.789"/>
</g>
<!-- PiCookedMultiImageEncoder -->
<g id="node12" class="node"><title>PiCookedMultiImageEncoder</title>
<a xlink:href="../api.html#picamera.PiCookedMultiImageEncoder" xlink:title="PiCookedMultiImageEncoder" target="_top">
<polygon fill="#99aadd" stroke="#000000" points="170,-36 7.10543e-14,-36 0,-1.77636e-14 170,-3.55271e-15 170,-36"/>
<text text-anchor="middle" x="85" y="-13.7" font-family="Arial" font-size="12.00">PiCookedMultiImageEncoder</text>
</a>
</g>
<!-- PiCookedMultiImageEncoder&#45;&gt;PiMultiImageEncoder -->
<g id="edge14" class="edge"><title>PiCookedMultiImageEncoder&#45;&gt;PiMultiImageEncoder</title>
<path fill="none" stroke="black" d="M116.795,-36.1686C133.061,-45.4632 153.039,-56.8792 170.405,-66.8029"/>
<polygon fill="black" stroke="black" points="168.796,-69.9146 179.215,-71.8372 172.269,-63.8369 168.796,-69.9146"/>
</g>
<!-- PiCookedVideoEncoder -->
<g id="node13" class="node"><title>PiCookedVideoEncoder</title>
<a xlink:href="../api.html#picamera.PiCookedVideoEncoder" xlink:title="PiCookedVideoEncoder" target="_top">
<polygon fill="#99aadd" stroke="#000000" points="855,-108 709,-108 709,-72 855,-72 855,-108"/>
<text text-anchor="middle" x="782" y="-85.7" font-family="Arial" font-size="12.00">PiCookedVideoEncoder</text>
</a>
</g>
<!-- PiCookedVideoEncoder&#45;&gt;PiVideoEncoder -->
<g id="edge16" class="edge"><title>PiCookedVideoEncoder&#45;&gt;PiVideoEncoder</title>
<path fill="none" stroke="black" d="M743.139,-108.169C722.726,-117.713 697.528,-129.494 675.914,-139.599"/>
<polygon fill="black" stroke="black" points="674.158,-136.556 666.581,-143.962 677.122,-142.897 674.158,-136.556"/>
</g>
</g>
</svg>
