<?xml version="1.0" encoding="UTF-8" standalone="no"?>
<!DOCTYPE svg PUBLIC "-//W3C//DTD SVG 1.1//EN"
 "http://www.w3.org/Graphics/SVG/1.1/DTD/svg11.dtd">
<!-- Generated by graphviz version 2.36.0 (20140111.2315)
 -->
<!-- Title: G Pages: 1 -->
<svg width="701pt" height="260pt"
 viewBox="0.00 0.00 701.00 260.00" xmlns="http://www.w3.org/2000/svg" xmlns:xlink="http://www.w3.org/1999/xlink">
<g id="graph0" class="graph" transform="scale(1 1) rotate(0) translate(4 256)">
<title>G</title>
<polygon fill="white" stroke="none" points="-4,4 -4,-256 697,-256 697,4 -4,4"/>
<!-- PiEncoder -->
<g id="node1" class="node"><title>PiEncoder</title>
<g id="a_node1"><a xlink:href="../api.html#picamera.PiEncoder" xlink:title="PiEncoder" target="_top">
<polygon fill="#ffffff" stroke="#000000" points="441,-252 369,-252 369,-216 441,-216 441,-252"/>
<text text-anchor="middle" x="405" y="-230.9" font-family="Arial" font-size="12.00">PiEncoder</text>
</a>
</g>
</g>
<!-- PiImageEncoder -->
<g id="node2" class="node"><title>PiImageEncoder</title>
<g id="a_node2"><a xlink:href="../api.html#picamera.PiImageEncoder" xlink:title="PiImageEncoder" target="_top">
<polygon fill="#ffffff" stroke="#000000" points="396,-180 292,-180 292,-144 396,-144 396,-180"/>
<text text-anchor="middle" x="344" y="-158.9" font-family="Arial" font-size="12.00">PiImageEncoder</text>
</a>
</g>
</g>
<!-- PiImageEncoder&#45;&gt;PiEncoder -->
<g id="edge2" class="edge"><title>PiImageEncoder&#45;&gt;PiEncoder</title>
<path fill="none" stroke="black" d="M359.079,-180.303C366.392,-188.695 375.31,-198.93 383.335,-208.139"/>
<polygon fill="black" stroke="black" points="380.886,-210.656 390.095,-215.896 386.164,-206.057 380.886,-210.656"/>
</g>
<!-- PiOneImageEncoder -->
<g id="node3" class="node"><title>PiOneImageEncoder</title>
<g id="a_node3"><a xlink:href="../api.html#picamera.PiOneImageEncoder" xlink:title="PiOneImageEncoder" target="_top">
<polygon fill="#ffffff" stroke="#000000" points="265,-108 139,-108 139,-72 265,-72 265,-108"/>
<text text-anchor="middle" x="202" y="-86.9" font-family="Arial" font-size="12.00">PiOneImageEncoder</text>
</a>
</g>
</g>
<!-- PiOneImageEncoder&#45;&gt;PiImageEncoder -->
<g id="edge3" class="edge"><title>PiOneImageEncoder&#45;&gt;PiImageEncoder</title>
<path fill="none" stroke="black" d="M236.737,-108.124C255.819,-117.531 279.679,-129.292 300.047,-139.333"/>
<polygon fill="black" stroke="black" points="298.612,-142.528 309.129,-143.81 301.708,-136.249 298.612,-142.528"/>
</g>
<!-- PiMultiImageEncoder -->
<g id="node4" class="node"><title>PiMultiImageEncoder</title>
<g id="a_node4"><a xlink:href="../api.html#picamera.PiMultiImageEncoder" xlink:title="PiMultiImageEncoder" target="_top">
<polygon fill="#ffffff" stroke="#000000" points="551,-108 423,-108 423,-72 551,-72 551,-108"/>
<text text-anchor="middle" x="487" y="-86.9" font-family="Arial" font-size="12.00">PiMultiImageEncoder</text>
</a>
</g>
</g>
<!-- PiMultiImageEncoder&#45;&gt;PiImageEncoder -->
<g id="edge4" class="edge"><title>PiMultiImageEncoder&#45;&gt;PiImageEncoder</title>
<path fill="none" stroke="black" d="M452.018,-108.124C432.802,-117.531 408.774,-129.292 388.263,-139.333"/>
<polygon fill="black" stroke="black" points="386.559,-136.27 379.116,-143.81 389.637,-142.557 386.559,-136.27"/>
</g>
<!-- PiRawEncoderMixin -->
<g id="node5" class="node"><title>PiRawEncoderMixin</title>
<g id="a_node5"><a xlink:href="../api.html#picamera.PiRawEncoderMixin" xlink:title="PiRawEncoderMixin" target="_top">
<polygon fill="#ffffff" stroke="#000000" points="405,-108 283,-108 283,-72 405,-72 405,-108"/>
<text text-anchor="middle" x="344" y="-86.9" font-family="Arial" font-size="12.00">PiRawEncoderMixin</text>
</a>
</g>
</g>
<!-- PiRawEncoderMixin&#45;&gt;PiImageEncoder -->
<g id="edge7" class="edge"><title>PiRawEncoderMixin&#45;&gt;PiImageEncoder</title>
<path fill="none" stroke="black" d="M344,-108.303C344,-116.017 344,-125.288 344,-133.888"/>
<polygon fill="black" stroke="black" points="340.5,-133.896 344,-143.896 347.5,-133.896 340.5,-133.896"/>
</g>
<!-- PiVideoEncoder -->
<g id="node6" class="node"><title>PiVideoEncoder</title>
<g id="a_node6"><a xlink:href="../api.html#picamera.PiVideoEncoder" xlink:title="PiVideoEncoder" target="_top">
<polygon fill="#99aadd" stroke="#000000" points="518,-180 414,-180 414,-144 518,-144 518,-180"/>
<text text-anchor="middle" x="466" y="-158.9" font-family="Arial" font-size="12.00">PiVideoEncoder</text>
</a>
</g>
</g>
<!-- PiVideoEncoder&#45;&gt;PiEncoder -->
<g id="edge1" class="edge"><title>PiVideoEncoder&#45;&gt;PiEncoder</title>
<path fill="none" stroke="black" d="M450.921,-180.303C443.608,-188.695 434.69,-198.93 426.665,-208.139"/>
<polygon fill="black" stroke="black" points="423.836,-206.057 419.905,-215.896 429.114,-210.656 423.836,-206.057"/>
</g>
<!-- PiRawOneImageEncoder -->
<g id="node7" class="node"><title>PiRawOneImageEncoder</title>
<g id="a_node7"><a xlink:href="../api.html#picamera.PiRawOneImageEncoder" xlink:title="PiRawOneImageEncoder" target="_top">
<polygon fill="#99aadd" stroke="#000000" points="334.5,-36 185.5,-36 185.5,-0 334.5,-0 334.5,-36"/>
<text text-anchor="middle" x="260" y="-14.9" font-family="Arial" font-size="12.00">PiRawOneImageEncoder</text>
</a>
</g>
</g>
<!-- PiRawOneImageEncoder&#45;&gt;PiOneImageEncoder -->
<g id="edge8" class="edge"><title>PiRawOneImageEncoder&#45;&gt;PiOneImageEncoder</title>
<path fill="none" stroke="black" d="M245.663,-36.3034C238.709,-44.6954 230.23,-54.9295 222.599,-64.1387"/>
<polygon fill="black" stroke="black" points="219.857,-61.9624 216.172,-71.8957 225.247,-66.4285 219.857,-61.9624"/>
</g>
<!-- PiRawOneImageEncoder&#45;&gt;PiRawEncoderMixin -->
<g id="edge9" class="edge"><title>PiRawOneImageEncoder&#45;&gt;PiRawEncoderMixin</title>
<path fill="none" stroke="black" d="M280.764,-36.3034C291.241,-45.0345 304.111,-55.7595 315.5,-65.2497"/>
<polygon fill="black" stroke="black" points="313.552,-68.1826 323.475,-71.8957 318.033,-62.805 313.552,-68.1826"/>
</g>
<!-- PiRawMultiImageEncoder -->
<g id="node8" class="node"><title>PiRawMultiImageEncoder</title>
<g id="a_node8"><a xlink:href="../api.html#picamera.PiRawMultiImageEncoder" xlink:title="PiRawMultiImageEncoder" target="_top">
<polygon fill="#99aadd" stroke="#000000" points="505,-36 353,-36 353,-0 505,-0 505,-36"/>
<text text-anchor="middle" x="429" y="-14.9" font-family="Arial" font-size="12.00">PiRawMultiImageEncoder</text>
</a>
</g>
</g>
<!-- PiRawMultiImageEncoder&#45;&gt;PiMultiImageEncoder -->
<g id="edge10" class="edge"><title>PiRawMultiImageEncoder&#45;&gt;PiMultiImageEncoder</title>
<path fill="none" stroke="black" d="M443.337,-36.3034C450.291,-44.6954 458.77,-54.9295 466.401,-64.1387"/>
<polygon fill="black" stroke="black" points="463.753,-66.4285 472.828,-71.8957 469.143,-61.9624 463.753,-66.4285"/>
</g>
<!-- PiRawMultiImageEncoder&#45;&gt;PiRawEncoderMixin -->
<g id="edge11" class="edge"><title>PiRawMultiImageEncoder&#45;&gt;PiRawEncoderMixin</title>
<path fill="none" stroke="black" d="M407.989,-36.3034C397.284,-45.1193 384.11,-55.9679 372.504,-65.5258"/>
<polygon fill="black" stroke="black" points="370.264,-62.8368 364.77,-71.8957 374.714,-68.2403 370.264,-62.8368"/>
</g>
<!-- PiCookedOneImageEncoder -->
<g id="node9" class="node"><title>PiCookedOneImageEncoder</title>
<g id="a_node9"><a xlink:href="../api.html#picamera.PiCookedOneImageEncoder" xlink:title="PiCookedOneImageEncoder" target="_top">
<polygon fill="#99aadd" stroke="#000000" points="168,-36 1.42109e-14,-36 1.42109e-14,-0 168,-0 168,-36"/>
<text text-anchor="middle" x="84" y="-14.9" font-family="Arial" font-size="12.00">PiCookedOneImageEncoder</text>
</a>
</g>
</g>
<!-- PiCookedOneImageEncoder&#45;&gt;PiOneImageEncoder -->
<g id="edge5" class="edge"><title>PiCookedOneImageEncoder&#45;&gt;PiOneImageEncoder</title>
<path fill="none" stroke="black" d="M112.866,-36.1239C128.295,-45.2764 147.481,-56.6583 164.097,-66.515"/>
<polygon fill="black" stroke="black" points="162.637,-69.7184 173.023,-71.8102 166.208,-63.698 162.637,-69.7184"/>
</g>
<!-- PiCookedMultiImageEncoder -->
<g id="node10" class="node"><title>PiCookedMultiImageEncoder</title>
<g id="a_node10"><a xlink:href="../api.html#picamera.PiCookedMultiImageEncoder" xlink:title="PiCookedMultiImageEncoder" target="_top">
<polygon fill="#99aadd" stroke="#000000" points="693,-36 523,-36 523,-0 693,-0 693,-36"/>
<text text-anchor="middle" x="608" y="-14.9" font-family="Arial" font-size="12.00">PiCookedMultiImageEncoder</text>
</a>
</g>
</g>
<!-- PiCookedMultiImageEncoder&#45;&gt;PiMultiImageEncoder -->
<g id="edge6" class="edge"><title>PiCookedMultiImageEncoder&#45;&gt;PiMultiImageEncoder</title>
<path fill="none" stroke="black" d="M578.4,-36.1239C562.433,-45.3612 542.54,-56.8692 525.394,-66.7884"/>
<polygon fill="black" stroke="black" points="523.617,-63.7731 516.714,-71.8102 527.122,-69.8322 523.617,-63.7731"/>
</g>
</g>
</svg>
